:SAMPLES-PER-SECOND 30
:FULLY-SPECIFIED
:DEGREES
48
root  13.4219 38.6087 -8.94435 -160.972 -76.2383 156.507
RightUpLeg  -27.1706 -3.65172 -10.6869
RightLeg  58.3382 -3.6747 -6.8678
RightFoot  1.83803 -0.223888 2.04925
RightToes  -1.74624e-010 0 -3.6325e-017
Spine  20.2532 -0.451163 2.37324
Spine1  5.38655 1.1117 -5.04905
HEad  -24.3442 9.68309 -4.60417
LeftShoulder1  8.21945 -12.3691 -45.1285
LeftArm  -9.88102 7.90195 -19.4356
LeftForeArm  25.9027 -25.4482 -4.01015
LeftHand  -0.244104 0.0205437 5.32207
RightShoulder  4.04614 7.25939 31.6461
RightArm  -40.1328 3.15971 17.6732
RightForeArm  137.29 63.9117 156.556
RightHand  -0.17136 -0.60194 -4.11718
LeftUpLeg  -6.69546 11.8944 -13.5703
LeftLeg  25.2799 6.06523 3.46312
LeftFoot  -18.2066 0.441385 5.5208
LeftToes  8.00323e-011 -1.37366e-010 4.43692e-012
49
root  11.399 38.5575 -9.00886 -162.194 -76.8584 157.574
RightUpLeg  -29.3052 -6.42757 -8.67521
RightLeg  47.4209 -5.37162 -6.55729
RightFoot  1.08302 -0.194302 1.86078
RightToes  -1.74624e-010 0 -3.6325e-017
Spine  20.4867 -1.04736 1.24733
Spine1  4.6045 -0.31909 -2.68255
HEad  -24.7677 11.5905 -5.28109
LeftShoulder1  8.33088 -12.6204 -45.0238
LeftArm  -10.6148 5.13555 -20.0674
LeftForeArm  31.6358 -32.9183 -5.48194
LeftHand  -0.244104 0.0205437 5.32207
RightShoulder  3.81838 6.80214 31.0999
RightArm  -42.4021 0.34631 15.3741
RightForeArm  135.212 60.6536 159.209
RightHand  -0.194135 -0.370112 -4.46252
LeftUpLeg  -2.37754 12.6485 -13.009
LeftLeg  24.0813 5.6312 3.08934
LeftFoot  -20.3344 0.623679 6.3633
LeftToes  8.00323e-011 -1.37366e-010 4.43692e-012
50
root  9.2455 38.4469 -9.08311 -165.5 -77.5473 160.891
RightUpLeg  -29.6809 -10.2249 -5.69015
RightLeg  33.9822 -6.04748 -4.70226
RightFoot  -0.0892504 -0.355857 3.63498
RightToes  -1.74624e-010 0 -3.6325e-017
Spine  20.4735 -1.88786 0.587926
Spine1  3.61977 -1.85285 -0.417584
HEad  -25.1538 13.8708 -5.90586
LeftShoulder1  8.28417 -12.7871 -44.2819
LeftArm  -11.4239 3.53234 -20.5182
LeftForeArm  39.0517 -42.3424 -7.65193
LeftHand  -0.244104 0.0205437 5.32207
RightShoulder  3.56474 6.34298 30.2393
RightArm  -45.2939 -3.24471 13.1529
RightForeArm  132.612 57.2245 161.469
RightHand  -0.309291 0.862879 -5.81146
LeftUpLeg  2.01092 13.192 -12.0001
LeftLeg  22.8676 6.12742 3.17044
LeftFoot  -21.6763 0.818844 7.5922
LeftToes  8.00323e-011 -1.37366e-010 4.43692e-012
51
root  6.91445 38.2775 -9.19813 -170.148 -77.9889 165.492
RightUpLeg  -28.6602 -14.9389 -1.79723
RightLeg  21.3491 -4.04655 -1.84488
RightFoot  -1.45526 -0.494874 5.5618
RightToes  -1.74624e-010 0 -3.6325e-017
Spine  19.952 -2.72072 -0.100764
Spine1  2.85132 -3.38413 2.10362
HEad  -25.5301 16.4248 -6.93796
LeftShoulder1  8.09173 -12.8258 -43.0876
LeftArm  -12.7533 3.00158 -21.1267
LeftForeArm  45.77 -52.1582 -10.8421
LeftHand  -0.244104 0.0205437 5.32207
RightShoulder  3.203 5.7187 28.7287
RightArm  -48.7942 -7.23315 11.2085
RightForeArm  131.024 53.7886 163.426
RightHand  -0.438074 2.10204 -6.99276
LeftUpLeg  6.21496 13.7319 -10.7162
LeftLeg  22.7059 7.01084 3.55707
LeftFoot  -22.9756 0.907029 7.60015
LeftToes  8.00323e-011 -1.37366e-010 4.43692e-012
52
root  4.47502 38.1239 -9.34918 -174.887 -77.8399 170.052
RightUpLeg  -27.108 -17.1789 1.13548
RightLeg  14.2634 -1.43996 0.619521
RightFoot  -1.18591 -0.452141 5.03544
RightToes  -1.74624e-010 0 -3.6325e-017
Spine  19.1143 -3.30102 -0.894238
Spine1  2.43352 -4.80662 5.20734
HEad  -25.4881 19.1819 -8.39216
LeftShoulder1  7.75886 -12.5949 -41.8282
LeftArm  -14.1022 3.0008 -21.6869
LeftForeArm  50.8185 -60.5007 -15.0815
LeftHand  -0.244104 0.0205437 5.32207
RightShoulder  2.68859 4.69284 26.7354
RightArm  -52.7883 -11.239 9.51148
RightForeArm  130.484 50.5705 165.045
RightHand  -0.381634 2.23295 -6.00626
LeftUpLeg  9.85807 14.703 -9.10342
LeftLeg  24.1695 6.65243 3.58375
LeftFoot  -23.2245 0.573668 4.12589
LeftToes  8.00323e-011 -1.37366e-010 4.43692e-012
53
root  2.03603 37.9967 -9.49642 179.972 -76.9844 174.814
RightUpLeg  -26.0663 -14.9206 2.16752
RightLeg  15.3458 -0.748069 1.41079
RightFoot  1.38748 -0.169217 1.68951
RightToes  -1.74624e-010 0 -3.6325e-017
Spine  18.804 -3.79029 -0.812628
Spine1  1.84731 -5.84349 7.67766
HEad  -24.9952 22.019 -9.74612
LeftShoulder1  7.35605 -12.1898 -40.5885
LeftArm  -15.3142 3.30705 -21.7889
LeftForeArm  54.9979 -66.6706 -20.2107
LeftHand  -0.244104 0.0205437 5.32207
RightShoulder  2.12289 3.3517 24.8276
RightArm  -57.469 -15.2007 7.85804
RightForeArm  128.861 47.7395 166.233
RightHand  -0.340078 3.11953 -4.85298
LeftUpLeg  11.4133 16.8516 -6.74122
LeftLeg  29.6435 5.68885 3.85867
LeftFoot  -18.9659 0.0577748 -1.35264
LeftToes  8.00323e-011 -1.37366e-010 4.43692e-012
54
root  -0.350309 37.7594 -9.59486 172.864 -75.6702 -178.636
RightUpLeg  -26.2846 -13.1961 4.06549
RightLeg  22.2392 1.78857 0.389489
RightFoot  3.61516 0.29561 -2.13111
RightToes  -1.74624e-010 0 -3.6325e-017
Spine  19.6953 -4.62314 0.87786
Spine1  0.397937 -6.45932 8.66567
HEad  -24.7612 24.9753 -10.895
LeftShoulder1  6.98447 -11.8531 -39.2713
LeftArm  -16.6855 4.43164 -21.4949
LeftForeArm  58.3257 -70.8672 -25.8411
LeftHand  -0.244104 0.0205437 5.32207
RightShoulder  1.60203 1.94472 23.1711
RightArm  -62.4601 -18.3173 6.59965
RightForeArm  125.476 45.5398 166.963
RightHand  -0.55382 5.2878 -6.2914
LeftUpLeg  8.75239 19.7433 -3.50846
LeftLeg  41.5891 5.9533 6.11928
LeftFoot  -6.91293 0.118913 -3.58096
LeftToes  8.00323e-011 -1.37366e-010 4.43692e-012
55
root  -2.5176 37.319 -9.61889 162.384 -74.3247 -168.437
RightUpLeg  -26.6017 -9.1023 4.91154
RightLeg  30.6148 -0.0610184 -0.286126
RightFoot  1.86504 0.438342 -3.66283
RightToes  -1.74624e-010 0 -3.6325e-017
Spine  21.8248 -6.0677 3.93005
Spine1  -1.62273 -7.19696 9.79194
HEad  -25.5667 28.1458 -12.4259
LeftShoulder1  6.71249 -11.6244 -38.2102
LeftArm  -17.9809 6.76389 -21.0068
LeftForeArm  58.4146 -72.8028 -29.9005
LeftHand  -0.244104 0.0205437 5.32207
RightShoulder  1.13325 0.562777 21.5259
RightArm  -67.0493 -19.5844 6.32196
RightForeArm  123.263 43.8921 167.493
RightHand  -0.736293 6.49281 -7.5249
LeftUpLeg  1.68198 21.5718 0.219889
LeftLeg  56.753 5.41697 9.25449
LeftFoot  8.8348 0.144071 -1.11709
LeftToes  8.00323e-011 -1.37366e-010 4.43692e-012
56
root  -4.46519 36.9205 -9.6099 153.449 -73.1671 -159.363
RightUpLeg  -26.723 -8.66802 6.37439
RightLeg  37.4948 -0.578176 -0.744843
RightFoot  -3.44056 0.182178 -2.86967
RightToes  -1.74624e-010 0 -3.6325e-017
Spine  24.1899 -7.50405 6.19567
Spine1  -3.49075 -8.2736 12.4474
HEad  -27.4801 31.2046 -14.5725
LeftShoulder1  6.5664 -11.4239 -37.8419
LeftArm  -18.1836 9.62877 -20.1995
LeftForeArm  52.8904 -71.5444 -28.2669
LeftHand  -0.244104 0.0205437 5.32207
RightShoulder  0.737837 -0.71399 20.0209
RightArm  -71.2881 -19.8138 6.7893
RightForeArm  123.227 42.4395 168.023
RightHand  -0.58643 6.9618 -5.87711
LeftUpLeg  -7.39134 22.084 2.77993
LeftLeg  69.4343 3.03714 9.65028
LeftFoot  16.1658 -0.26964 0.763066
LeftToes  8.00323e-011 -1.37366e-010 4.43692e-012
57
root  -6.50983 36.9627 -9.56719 151.648 -72.3987 -157.368
RightUpLeg  -24.6716 -9.51742 5.86098
RightLeg  40.339 0.000753147 -0.305463
RightFoot  -8.43373 -0.0286259 -1.23307
RightToes  -1.74624e-010 0 -3.6325e-017
Spine  25.8466 -8.10636 6.14001
Spine1  -4.98501 -9.11229 15.2689
HEad  -30.0628 33.6801 -16.8381
LeftShoulder1  6.54054 -11.3216 -37.9648
LeftArm  -16.4301 12.1099 -18.8359
LeftForeArm  46.0592 -66.593 -21.4629
LeftHand  -0.244104 0.0205437 5.32207
RightShoulder  0.445284 -1.75961 19.0352
RightArm  -75.0628 -20.6965 7.35765
RightForeArm  122.055 40.8601 168.523
RightHand  -0.583903 8.49991 -5.19462
LeftUpLeg  -16.0719 22.9986 2.85942
LeftLeg  76.4739 1.35724 7.95942
LeftFoot  13.4843 -0.32957 1.08581
LeftToes  8.00323e-011 -1.37366e-010 4.43692e-012
58
root  -8.62123 37.2429 -9.46732 155.186 -71.4086 -160.694
RightUpLeg  -21.5591 -9.35991 3.68798
RightLeg  40.7171 1.12939 0.733556
RightFoot  -11.31 -0.0782655 -0.0110716
RightToes  -1.74624e-010 0 -3.6325e-017
Spine  27.0432 -8.00349 5.09046
Spine1  -6.20869 -9.34513 16.8497
HEad  -33.1549 35.6994 -19.0902
LeftShoulder1  6.58157 -11.3556 -38.1329
LeftArm  -12.6425 14.4885 -17.1097
LeftForeArm  45.0765 -58.9362 -14.5765
LeftHand  -0.244104 0.0205437 5.32207
RightShoulder  0.204603 -2.68484 18.4126
RightArm  -77.4618 -22.2811 7.81849
RightForeArm  119.647 39.0502 169.026
RightHand  -0.918863 9.74207 -7.45091
LeftUpLeg  -23.5497 25.223 1.6538
LeftLeg  77.5341 0.949607 6.60024
LeftFoot  7.12015 -0.0589022 0.0949881
LeftToes  8.00323e-011 -1.37366e-010 4.43692e-012
59
root  -10.7118 37.5542 -9.30586 160.225 -69.8083 -165.397
RightUpLeg  -18.6154 -8.05483 0.994615
RightLeg  40.4087 2.0922 1.6072
RightFoot  -13.3605 -0.066721 1.28128
RightToes  -1.74624e-010 0 -3.6325e-017
Spine  28.2289 -7.67675 3.91498
Spine1  -7.43832 -9.28263 17.7664
HEad  -36.7428 37.6814 -21.7958
LeftShoulder1  6.61939 -11.3505 -38.392
LeftArm  -7.46608 17.6603 -15.5516
LeftForeArm  50.0756 -50.4263 -9.74651
LeftHand  -0.244104 0.0205437 5.32207
RightShoulder  -0.0398065 -3.6678 17.7016
RightArm  -78.6667 -23.7653 7.91846
RightForeArm  120.556 37.6597 169.504
RightHand  -0.842552 9.22475 -6.99607
LeftUpLeg  -29.9325 28.2488 0.0658532
LeftLeg  73.7786 1.50402 6.89507
LeftFoot  2.85726 -0.0246284 0.107751
LeftToes  8.00323e-011 -1.37366e-010 4.43692e-012
60
root  -12.7878 37.8886 -9.11431 165.995 -68.1246 -170.598
RightUpLeg  -15.9017 -6.73271 -2.22312
RightLeg  39.3916 2.6677 2.05837
RightFoot  -15.5686 0.00537937 2.99628
RightToes  -1.74624e-010 0 -3.6325e-017
Spine  29.0394 -7.26253 2.11005
Spine1  -8.55498 -9.26435 18.5971
HEad  -40.2081 39.6788 -24.8034
LeftShoulder1  6.63039 -11.2016 -38.8943
LeftArm  -1.96053 21.6247 -14.3586
LeftForeArm  54.3927 -41.6768 -6.53391
LeftHand  -0.244104 0.0205437 5.32207
RightShoulder  -0.270092 -4.65786 16.6778
RightArm  -79.7389 -25.2284 7.31385
RightForeArm  124.256 37.6479 169.65
RightHand  -0.290741 8.95856 -2.78424
LeftUpLeg  -35.018 31.2692 -2.2119
LeftLeg  66.0707 3.07418 8.21909
LeftFoot  0.285507 -0.151463 1.43974
LeftToes  8.00323e-011 -1.37366e-010 4.43692e-012
61
root  -14.8815 38.1177 -8.90593 171.512 -66.3179 -175.223
RightUpLeg  -13.5885 -5.82165 -5.62453
RightLeg  37.9735 3.20996 2.4074
RightFoot  -17.5258 0.117089 4.39072
RightToes  -1.74624e-010 0 -3.6325e-017
Spine  28.9987 -6.91242 0.424661
Spine1  -9.32883 -9.23441 18.8567
HEad  -43.0378 41.735 -27.4838
LeftShoulder1  6.55994 -10.9368 -39.2154
LeftArm  2.80557 26.0349 -13.4527
LeftForeArm  51.4285 -32.4054 -4.29894
LeftHand  -0.244104 0.0205437 5.32207
RightShoulder  -0.474749 -5.65642 15.2164
RightArm  -80.2233 -26.5622 6.36763
RightForeArm  124.621 38.6153 169.365
RightHand  -0.262343 9.80463 -2.38093
LeftUpLeg  -38.4862 34.5006 -4.70164
LeftLeg  54.8371 5.15592 8.33151
LeftFoot  -2.07995 -0.0628815 0.91851
LeftToes  8.00323e-011 -1.37366e-010 4.43692e-012
62
root  -17.0166 38.1798 -8.67589 175.305 -64.2548 -177.923
RightUpLeg  -11.6533 -5.11741 -8.64449
RightLeg  36.6628 4.08174 2.99075
RightFoot  -18.8042 0.22893 5.46816
RightToes  -1.74624e-010 0 -3.6325e-017
Spine  28.6836 -6.76646 -0.5589
Spine1  -9.98697 -9.13553 18.4708
HEad  -46.0827 44.029 -30.2814
LeftShoulder1  6.268 -10.3782 -38.9487
LeftArm  4.42019 31.5168 -12.8869
LeftForeArm  42.6628 -23.9849 -3.12949
LeftHand  -0.244104 0.0205437 5.32207
RightShoulder  -0.681845 -6.84115 13.4098
RightArm  -79.5326 -27.1067 5.55225
RightForeArm  122.598 39.2158 169.09
RightHand  -0.630556 9.11706 -5.42832
LeftUpLeg  -40.9311 38.6513 -7.37201
LeftLeg  40.7491 5.75995 5.99486
LeftFoot  -2.7442 0.0141634 0.0439037
LeftToes  8.00323e-011 -1.37366e-010 4.43692e-012
